#define stick_width 72
#define stick_height 72
static unsigned char stick_bits[] = {
   0x08, 0x00, 0x00, 0x00, 0x00, 0x00, 0x00, 0x00, 0x00, 0x14, 0x00, 0x00,
   0x00, 0x00, 0x00, 0x00, 0x00, 0x00, 0x24, 0x00, 0x00, 0x00, 0x00, 0x00,
   0x00, 0x00, 0x00, 0x1b, 0x00, 0x00, 0x00, 0x00, 0x00, 0x00, 0x00, 0x00,
   0x20, 0x00, 0x00, 0x00, 0x00, 0x00, 0x00, 0x00, 0x00, 0xdc, 0x00, 0x00,
   0x00, 0x00, 0x00, 0x00, 0x00, 0x00, 0x90, 0x00, 0x00, 0x00, 0x00, 0x00,
   0x00, 0x00, 0x00, 0x00, 0x03, 0x00, 0x00, 0x00, 0x00, 0x00, 0x00, 0x00,
   0x70, 0x00, 0x00, 0x07, 0x00, 0x00, 0x00, 0x00, 0x00, 0x80, 0x02, 0x80,
   0x08, 0x00, 0x00, 0x00, 0x00, 0x00, 0xa0, 0x0e, 0x80, 0x09, 0x00, 0x00,
   0x00, 0x00, 0x00, 0x00, 0x11, 0x00, 0x02, 0x00, 0x00, 0x00, 0x00, 0x00,
   0x00, 0x34, 0x00, 0x1a, 0x00, 0x00, 0x00, 0x00, 0x00, 0x80, 0x49, 0x00,
   0x05, 0x00, 0x00, 0x00, 0x00, 0x00, 0x00, 0x51, 0x00, 0x1d, 0x00, 0x00,
   0x00, 0x00, 0x00, 0x00, 0x82, 0x00, 0x20, 0x00, 0x00, 0x00, 0x00, 0x00,
   0x00, 0x16, 0x01, 0x21, 0x00, 0x00, 0x00, 0x00, 0x00, 0x00, 0x88, 0x02,
   0x1f, 0x00, 0x00, 0x00, 0x00, 0x00, 0x00, 0x30, 0x04, 0x60, 0x00, 0x00,
   0x00, 0x00, 0x00, 0x00, 0x80, 0x0a, 0x12, 0x00, 0x00, 0x00, 0x00, 0x00,
   0x00, 0xb0, 0x10, 0x04, 0x00, 0x00, 0x00, 0x00, 0x00, 0x00, 0x20, 0x28,
   0x6a, 0x00, 0x00, 0x00, 0x00, 0x00, 0x00, 0x80, 0xe3, 0x8a, 0x00, 0x00,
   0x00, 0x00, 0x00, 0x00, 0x80, 0x00, 0x61, 0x00, 0x00, 0x00, 0x00, 0x00,
   0x00, 0x00, 0x4e, 0xca, 0x00, 0x00, 0x00, 0x00, 0x00, 0x00, 0x00, 0x10,
   0x01, 0x01, 0x00, 0x00, 0x00, 0x00, 0x00, 0x00, 0x50, 0x0f, 0x01, 0x00,
   0x00, 0x00, 0x00, 0x00, 0x00, 0x20, 0x70, 0x00, 0x00, 0x00, 0x00, 0x00,
   0x00, 0x00, 0x40, 0x04, 0x00, 0x00, 0x00, 0x00, 0x00, 0x00, 0x00, 0x80,
   0xe9, 0x03, 0x00, 0x00, 0x00, 0x00, 0x00, 0x00, 0x00, 0x09, 0x06, 0x00,
   0x00, 0x00, 0x00, 0x00, 0x00, 0x00, 0x82, 0x09, 0x00, 0x00, 0x00, 0x00,
   0x00, 0x00, 0x00, 0x38, 0x28, 0x00, 0x00, 0x00, 0x00, 0x00, 0x00, 0x00,
   0x00, 0x13, 0x00, 0x00, 0x00, 0x00, 0x00, 0x00, 0x00, 0x60, 0x24, 0x00,
   0x00, 0x00, 0x00, 0x00, 0x00, 0x00, 0x00, 0xdb, 0x01, 0x00, 0x00, 0x00,
   0x00, 0x00, 0x00, 0x00, 0x10, 0x00, 0x00, 0x00, 0x00, 0x00, 0x00, 0x00,
   0x00, 0x25, 0x03, 0x00, 0x00, 0x00, 0x00, 0x00, 0x00, 0x00, 0x44, 0x0a,
   0x00, 0x00, 0x00, 0x00, 0x00, 0x00, 0x00, 0xa0, 0x04, 0x00, 0x00, 0x00,
   0x00, 0x00, 0x00, 0x00, 0x8c, 0x19, 0x00, 0x00, 0x00, 0x00, 0x00, 0x00,
   0x00, 0x30, 0x26, 0x00, 0x00, 0x00, 0x00, 0x00, 0x00, 0x00, 0x20, 0x60,
   0x00, 0x00, 0x00, 0x00, 0x00, 0x00, 0x00, 0x40, 0x9c, 0x00, 0x00, 0x00,
   0x00, 0x00, 0x00, 0xf0, 0xc0, 0xa1, 0x00, 0x00, 0x00, 0x00, 0x00, 0x00,
   0x10, 0x25, 0x14, 0x01, 0x00, 0x00, 0x00, 0x00, 0x00, 0x00, 0x6d, 0x14,
   0x02, 0x00, 0x00, 0x00, 0x00, 0x00, 0x78, 0x90, 0x61, 0x05, 0x00, 0x00,
   0x00, 0x00, 0x00, 0x80, 0x05, 0x41, 0x00, 0x00, 0x00, 0x00, 0x00, 0x00,
   0x40, 0x28, 0x86, 0x07, 0x00, 0x00, 0x00, 0x00, 0x00, 0x00, 0x28, 0x0c,
   0x1c, 0x00, 0x00, 0x00, 0x00, 0x00, 0x00, 0xc0, 0x30, 0x20, 0x00, 0x00,
   0x00, 0x00, 0x00, 0x00, 0x00, 0x83, 0x25, 0x00, 0x00, 0x00, 0x00, 0x00,
   0x00, 0x00, 0x70, 0x4a, 0x01, 0x00, 0x00, 0x00, 0x00, 0x00, 0x00, 0x00,
   0x58, 0x02, 0x00, 0x00, 0x00, 0x00, 0x00, 0x00, 0xc0, 0xa0, 0x05, 0x00,
   0x00, 0x00, 0x00, 0x00, 0x00, 0x00, 0x03, 0x1c, 0x00, 0x00, 0x00, 0x00,
   0x00, 0x00, 0x80, 0xa0, 0x21, 0x00, 0x00, 0x00, 0x00, 0x00, 0x00, 0x00,
   0x26, 0x65, 0x00, 0x00, 0x00, 0x00, 0x00, 0x00, 0x00, 0x08, 0x8a, 0x01,
   0x00, 0x00, 0x00, 0x00, 0x00, 0x00, 0x08, 0x08, 0x04, 0x00, 0x00, 0x00,
   0x00, 0x00, 0x00, 0xf0, 0x34, 0x0b, 0x00, 0x00, 0x00, 0x00, 0x00, 0x00,
   0x00, 0x41, 0x30, 0x00, 0x00, 0x00, 0x00, 0x00, 0x00, 0x80, 0xb4, 0x4e,
   0x00, 0x00, 0x00, 0x00, 0x00, 0x00, 0x00, 0x81, 0xc0, 0x00, 0x00, 0x00,
   0x00, 0x00, 0x00, 0x00, 0x24, 0x18, 0x00, 0x00, 0x00, 0x00, 0x00, 0x00,
   0x00, 0xac, 0x21, 0x00, 0x00, 0x00, 0x00, 0x00, 0x00, 0x00, 0x40, 0x1a,
   0x00, 0x00, 0x00, 0x00, 0x00, 0x00, 0x00, 0x00, 0x02, 0x00, 0x00, 0x00,
   0x00, 0x00, 0x00, 0x00, 0xc0, 0x04, 0x00, 0x00, 0x00, 0x00, 0x00, 0x00,
   0x00, 0x80, 0x00, 0x00, 0x00, 0x00, 0x00, 0x00, 0x00, 0x00, 0x00, 0x01 };
